<?xml version="1.0" encoding="utf-8"?>
<!-- Generator: Adobe Illustrator 19.0.0, SVG Export Plug-In . SVG Version: 6.00 Build 0)  -->
<svg version="1.1" id="Layer_1" xmlns="http://www.w3.org/2000/svg" xmlns:xlink="http://www.w3.org/1999/xlink" x="0px" y="0px"
	 viewBox="698 -124.1 1944 1046" style="enable-background:new 698 -124.1 1944 1046;" xml:space="preserve">
<style type="text/css">
	.st0{fill-rule:evenodd;clip-rule:evenodd;fill:#17321B;}
	.st1{fill:#17321B;}
</style>
<g>
	<g>
		<path class="st0" d="M816.4,776.4c19.7,18.9,41.9,33.6,66,45.1l34.7,79.2h32.6l6.5-108.5c0,0,155.8-44.4,199.9-135.5
			c6.4-11.6,3.5-13.3-1.8-6.9c0,0-52.7,86-222,122.9v93.3l-35.8-64c-1.1,2.5-49.4-20.4-73.4-33C813.4,765.4,817.3,776.7,816.4,776.4
			z"/>
		<path class="st0" d="M815.2,495.3c20.8-3.6,43.9-1.3,58.8,0.5c11.6,13,55.6,72,159.2,60.1c-18.6,73.2-102.7,60.4-157.9,24.6
			c-11.3-7.3-21-21.1-29.8-30.1c-22.4,44.9-123,60.1-131.1-17.6C783.8,542.5,793.3,517.7,815.2,495.3z"/>
		<path class="st0" d="M813.5,624.9l35.8-0.1l47,5.4c0,0-23.1,34.4-15,64.2c8.1,29.8,26.9,70.7,23.5,75.4
			c-3.4,4.7-104-0.4-99.7-47.9c4.4-47.6,6-17.1,7.6-60.8C810.9,640.3,813.2,626.8,813.5,624.9z"/>
		<path class="st0" d="M729.5,294.8c0,0,6.5-93.3,29.3-145.4c22.8-52.1,70.5-96.6,109.6-90.1c39.1,6.5,110.7,8.7,137.8,6.5
			c27.1-2.2,94.4-17.4,130.2,5.4c35.8,22.8,48.8,44.5,56.4,85.7c7.6,41.2,27.1,68.4-2.2,103.1c-29.3,34.7-30.4,35.8-30.4,35.8
			s11.9,17.4,17.4,45.6c5.4,28.2,10.9,65.1,10.9,65.1s36.9-44.5,67.3-40.2c30.4,4.3,36.9,7.6,36.9,7.6s16.3-100.9,14.1-136.7
			c-2.2-35.8,6.5-145.4-22.8-169.3c-29.3-23.9-108.5-43.4-112.9-86.8c-4.3-43.4-7.6-85.7-25-72.7c-17.4,13-8.7,25-45.6,17.4
			c-36.9-7.6-94.4-41.2-99.8-23.9c-5.4,17.4-2.2,51-29.3,42.3c-27.1-8.7-47.8-25-66.2-10.9c-18.4,14.1-8.7,14.1-44.5,20.6
			c-35.8,6.5-66.2,4.3-66.2,41.2c0,36.9-4.3,36.9-21.7,69.5C755.5,97.3,727.3,121.2,729.5,294.8z"/>
	</g>
	<g>
		<g>
			<path class="st0" d="M1486.6-57.1v27h6.4c4.9,0,8.4-1.1,10.5-3.2c2.1-2.1,3.1-5.7,3.1-10.7c0-4.7-1.1-8-3.3-10
				c-2.2-2-6.1-3-11.6-3H1486.6L1486.6-57.1z M1477.6-64.7h14.8c7.9,0,13.8,1.7,17.7,5.1c3.9,3.4,5.8,8.6,5.8,15.6
				c0,7.5-2,13-6,16.4c-4,3.4-10.4,5.2-19.2,5.2h-4.1V8.2h-9V-64.7L1477.6-64.7z M1584.2-64.7h9v65h23.9v7.9h-33V-64.7L1584.2-64.7z
				 M1707.6-55.4L1696-18.6h22.8L1707.6-55.4L1707.6-55.4z M1702.8-64.7h10.2l23.4,72.9h-9.7l-5.6-19.1h-27.6l-5.9,19.1h-9.1
				L1702.8-64.7L1702.8-64.7z M1792.2-64.7h42.4v7.8h-16.7V8.2h-9v-65.1h-16.7V-64.7L1792.2-64.7z M1919.3-55.4l-11.6,36.9h22.8
				L1919.3-55.4L1919.3-55.4z M1914.4-64.7h10.2l23.4,72.9h-9.7l-5.6-19.1h-27.6l-5.9,19.1h-9.1L1914.4-64.7L1914.4-64.7z
				 M2013.9-64.7h32.1v7.6H2023V-33h22.2v7.7H2023V8.2h-9V-64.7L2013.9-64.7z M2137.8-58.2c-5.6,0-9.9,2.5-12.8,7.6
				c-2.9,5.1-4.4,12.5-4.4,22.3c0,9.8,1.5,17.3,4.4,22.4c2.9,5.1,7.2,7.6,12.8,7.6c5.6,0,9.9-2.6,12.8-7.7
				c2.9-5.1,4.4-12.5,4.4-22.3c0-9.7-1.5-17.1-4.4-22.2C2147.7-55.6,2143.4-58.2,2137.8-58.2L2137.8-58.2z M2137.8-65.7
				c8.5,0,15.1,3.3,19.8,9.8c4.7,6.5,7,15.7,7,27.7c0,12-2.3,21.2-7,27.7c-4.7,6.5-11.3,9.7-19.8,9.7c-8.5,0-15.1-3.3-19.8-9.7
				c-4.7-6.5-7-15.7-7-27.7c0-12,2.3-21.2,7-27.7C2122.7-62.5,2129.3-65.7,2137.8-65.7L2137.8-65.7z M2243.9-57.1v24.9h3.9
				c6.2,0,10.5-1,13-3c2.5-2,3.7-5.4,3.7-10.2c0-4.2-1.2-7.2-3.5-9c-2.3-1.8-6.6-2.7-12.7-2.7H2243.9L2243.9-57.1z M2234.9-64.7
				h12.4c9.7,0,16.5,1.5,20.5,4.4c3.9,3,5.9,7.8,5.9,14.6c0,4.7-1.3,8.6-3.8,11.6c-2.5,3-6.2,4.9-10.9,5.8c2.4,0.3,4.3,1.1,5.6,2.5
				c1.4,1.3,2.7,4,4.1,8.1l9.2,25.9h-9.7l-7.9-23.2c-1.4-4.2-2.8-6.9-4.3-8c-1.5-1.1-3.8-1.7-7.1-1.7h-5.1V8.2h-8.9V-64.7
				L2234.9-64.7z M2344.7-64.7h13.3l18.8,59.1l18.7-59.1h13.5V8.2h-8.5v-64.8l-20.8,64.8h-6.4l-20.6-64.8V8.2h-8V-64.7L2344.7-64.7z
				 M2503.5-55.4l-11.6,36.9h22.8L2503.5-55.4L2503.5-55.4z M2498.7-64.7h10.2l23.4,72.9h-9.7l-5.6-19.1h-27.6l-5.9,19.1h-9.1
				L2498.7-64.7z"/>
		</g>
		<g>
			<path class="st0" d="M1471.7,752.8c0,18.8,0,34.9-1,43.4c-0.8,5.9-1.8,10.4-5.9,11.2c-1.8,0.4-4.3,0.8-7.3,0.8
				c-2.4,0-3.3,0.6-3.3,1.6c0,1.4,1.4,2,4.1,2c8.2,0,21-0.6,25.7-0.6c5.3,0,18.1,0.6,31.6,0.6c2.2,0,3.9-0.6,3.9-2
				c0-1-1-1.6-3.3-1.6c-3.1,0-7.5-0.4-10.4-0.8c-6.1-0.8-7.3-5.3-8-11c-1-8.8-1-24.9-1-43.6v-81.6c0-2.2,0.6-3.5,1.6-3.9
				c1.8-0.6,4.9-0.8,8-0.8c4.7,0,13.1,1.2,20.4,8c11.4,10.2,12,23.9,12,30.6c0,20.8-15.9,33.6-27.3,33.6c-4.3,0-5.7,0.6-5.7,2.2
				c0,1.4,1.4,1.6,2.4,1.8c1,0.2,3.3,0.2,4.3,0.2c29,0,50.2-20.4,50.2-49.4c0-10.8-5.7-20-10.2-24.3c-3.3-3.1-12.4-11.6-37.9-11.6
				c-9.4,0-21.2,0.6-29.6,0.6c-5.7,0-18.6-0.6-29.4-0.6c-3.1,0-4.5,0.4-4.5,1.8c0,1.4,1.2,1.8,3.5,1.8c2.9,0,6.3,0.2,8,0.6
				c6.7,1.4,8.4,4.7,8.8,11.6c0.4,6.5,0.4,12.2,0.4,43.2V752.8L1471.7,752.8z M1605.2,752.8c0,18.8,0,34.9-1,43.4
				c-0.8,5.9-1.8,10.4-5.9,11.2c-1.8,0.4-4.3,0.8-7.3,0.8c-2.4,0-3.3,0.6-3.3,1.6c0,1.4,1.4,2,4.1,2c4.1,0,9.4-0.4,14.1-0.4
				c4.9-0.2,9.4-0.2,11.6-0.2c6.1,0,12.4,0.2,21.2,0.6c8.8,0.2,20,0.6,35.3,0.6c7.7,0,9.6,0,11-5.3c1-4.1,2.7-17.9,2.7-22.6
				c0-2,0-3.7-1.6-3.7c-1.4,0-1.8,0.8-2.2,3.1c-1.4,8.4-3.9,12.6-9.2,15.1c-5.3,2.4-13.9,2.4-19.2,2.4c-20.8,0-24.1-3.1-24.5-17.1
				c-0.2-5.9,0-24.7,0-31.6v-16.1c0-1.2,0.2-2,1.2-2c4.9,0,25.1,0.2,29,0.6c7.5,0.8,10.4,3.9,11.4,8c0.6,2.7,0.6,5.3,0.8,7.3
				c0,1,0.4,1.8,1.8,1.8c1.8,0,1.8-2.2,1.8-3.9c0-1.4,0.6-9.6,0.8-13.7c0.8-10.4,1.6-13.7,1.6-14.9c0-1.2-0.6-1.6-1.4-1.6
				c-1,0-1.8,1-3.3,2.7c-1.8,2-4.9,2.7-9.8,3.1c-4.7,0.4-28.1,0.4-32.6,0.4c-1.2,0-1.4-0.8-1.4-2.2v-51.6c0-1.4,0.4-2,1.4-2
				c4.1,0,25.5,0.4,29,0.8c10.2,1.2,12.2,3.7,13.7,7.3c1,2.4,1.2,5.9,1.2,7.3c0,1.8,0.4,2.9,1.8,2.9c1.4,0,1.8-1.2,2-2.2
				c0.4-2.4,0.8-11.4,1-13.5c0.6-9.4,1.6-11.8,1.6-13.3c0-1-0.2-1.8-1.2-1.8c-1,0-2.2,0.6-3.3,0.8c-1.6,0.4-4.9,0.8-8.8,1.2
				c-3.9,0.2-44.5,0.2-51,0.2c-2.9,0-7.5-0.2-12.8-0.4c-5.1,0-11-0.2-16.5-0.2c-3.1,0-4.5,0.4-4.5,1.8c0,1.4,1.2,1.8,3.5,1.8
				c2.9,0,6.3,0.2,8,0.6c6.7,1.4,8.4,4.7,8.8,11.6c0.4,6.5,0.4,12.2,0.4,43.2V752.8L1605.2,752.8z M1796.3,814.4
				c3.3,0.2,6.9,0.4,10.8,0.4c13.1,0,28.6-1.4,36.7-4.7c3.5-1.4,4.3-2.4,5.3-5.9c2-6.9,4.5-24.7,4.5-27.1c0-1.6-0.4-3.1-1.8-3.1
				c-1.6,0-2,0.8-2.7,4.1c-0.8,3.7-3.5,9.6-6.9,13.5c-8.2,9.4-19.2,11.4-37.3,11.4c-27.3,0-64.2-24.1-64.2-72.6
				c0-19.8,3.9-39.2,18.8-52.8c9-8.2,20.6-12.6,38.3-12.6c18.8,0,34.7,5.5,41.4,12.6c5.1,5.3,7.7,12.4,8,18.8c0,2.9,0.4,4.5,2,4.5
				c1.8,0,2.2-1.6,2.4-4.7c0.4-4.1,0.2-15.3,0.6-22c0.4-7.1,1-9.6,1-11.2c0-1.2-0.8-2.2-3.1-2.4c-6.1-0.6-12.6-2.4-20.4-3.5
				c-9.4-1.2-16.9-2-29.6-2c-30.4,0-49.8,8.2-64.4,21.6c-19.6,17.9-23.9,42-23.9,55.9c0,52,36.3,75.9,74.2,81l-16.3,12.2
				c-2.7,2-3.3,2.4-3.3,3.1c0,0.6,1.6,1.2,4.5,1.6c13.7,2,16.1,9.4,16.1,14.9c0,8.6-10.4,13.7-17.1,13.7c-2.9,0-5.3,0.8-5.3,2.7
				c0,1.4,1.6,2,3.5,2c29.2,0,37.5-13.7,37.5-21.8c0-9.2-9.2-14.9-24.1-16.3L1796.3,814.4L1796.3,814.4z M1957,758.7
				c1,0,1.6,0.4,2,1.4l16.3,43.2c1,2.4-0.4,4.3-1.8,4.7c-2,0.2-2.9,0.6-2.9,1.8c0,1.4,2.4,1.4,6.1,1.6c16.3,0.4,31.2,0.4,38.5,0.4
				c7.5,0,9.4-0.4,9.4-2c0-1.4-1-1.6-2.7-1.6c-2.4,0-5.5-0.2-8.6-0.8c-4.3-1.2-10.2-4-17.9-22.3c-13-30.9-45.7-114.1-50.6-125.3
				c-2-4.7-3.3-6.5-5.1-6.5c-2,0-3.3,2.2-5.7,8.2L1883,789.5c-4.1,10.2-8,17.1-17.3,18.4c-1.6,0.2-4.5,0.4-6.3,0.4
				c-1.6,0-2.4,0.4-2.4,1.6c0,1.6,1.2,2,3.9,2c10.6,0,21.8-0.6,24.1-0.6c6.3,0,15.1,0.6,21.6,0.6c2.2,0,3.5-0.4,3.5-2
				c0-1.2-0.6-1.6-3.1-1.6h-3.1c-6.3,0-8.2-2.7-8.2-6.3c0-2.4,1-7.3,3.1-12.4l11-29.2c0.4-1.2,0.8-1.6,1.8-1.6H1957L1957,758.7z
				 M1915.6,748.5c-0.8,0-1-0.6-0.8-1.4l18.8-50.2c0.2-0.8,0.6-1.8,1.2-1.8c0.6,0,0.8,1,1,1.8l18.4,50.4c0.2,0.6,0,1.2-1,1.2H1915.6
				L1915.6,748.5z M2055.4,698.5l2.2,85.7c0.4,15.9,3.1,21.2,7.1,22.6c3.5,1.2,7.3,1.4,10.6,1.4c2.2,0,3.5,0.4,3.5,1.6
				c0,1.6-1.8,2-4.7,2c-13.3,0-21.4-0.6-25.3-0.6c-1.8,0-11.4,0.6-22,0.6c-2.7,0-4.5-0.2-4.5-2c0-1.2,1.2-1.6,3.3-1.6
				c2.7,0,6.3-0.2,9.2-1c5.3-1.6,6.1-7.5,6.3-25.3l1.8-120.7c0-4.1,0.6-6.9,2.7-6.9c2.2,0,4.1,2.7,7.6,6.3
				c2.4,2.7,33.4,35.9,63.2,65.5c13.9,13.9,41.4,43.2,44.8,46.5h1l-2-91.6c-0.2-12.4-2-16.3-6.9-18.4c-3-1.2-7.9-1.2-10.8-1.2
				c-2.4,0-3.3-0.6-3.3-1.8c0-1.6,2.2-1.8,5.3-1.8c10.6,0,20.4,0.6,24.6,0.6c2.2,0,10-0.6,20-0.6c2.7,0,4.7,0.2,4.7,1.8
				c0,1.2-1.2,1.8-3.7,1.8c-2,0-3.7,0-6.1,0.6c-5.7,1.6-7.3,5.9-7.5,17.3l-2.2,128.7c0,4.5-0.8,6.3-2.7,6.3c-2.2,0-4.7-2.2-6.9-4.5
				c-12.8-12.2-38.9-38.9-60.1-60c-22.2-22-44.8-47.5-48.5-51.4H2055.4L2055.4,698.5z M2266,722.6c-0.6,0-1.2-0.4-1.2-1.4v-4.3
				c0-31,0-36.7,0.4-43.2c0.4-7.1,2-10.6,7.5-11.6c2.4-0.4,4.3-0.6,5.9-0.6c2.4,0,3.7-0.4,3.7-1.8c0-1.4-1.4-1.8-4.3-1.8
				c-8,0-20.8,0.6-25.7,0.6c-5.5,0-18.4-0.6-29.4-0.6c-2.9,0-4.3,0.4-4.3,1.8c0,1.4,1.2,1.8,3.5,1.8c2.9,0,6.3,0.2,8,0.6
				c6.7,1.4,8.4,4.7,8.8,11.6c0.4,6.5,0.4,12.2,0.4,43.2v35.9c0,18.8,0,34.9-1,43.4c-0.8,5.9-1.8,10.4-5.9,11.2
				c-1.8,0.4-4.3,0.8-7.3,0.8c-2.4,0-3.3,0.6-3.3,1.6c0,1.4,1.4,2,4.1,2c8.2,0,21-0.6,25.7-0.6c5.7,0,18.6,0.6,31.8,0.6
				c2.4,0,4.1-0.6,4.1-2c0-1-1-1.6-3.3-1.6c-3.1,0-7.5-0.4-10.4-0.8c-6.1-0.8-7.3-5.3-8-11c-1-8.8-1-24.9-1-43.6v-17.9
				c0-1,0.6-1.2,1.2-1.2h77.9c0.6,0,1.2,0.4,1.2,1.2v17.9c0,18.8,0,34.9-1,43.4c-0.8,5.9-1.8,10.4-5.9,11.2
				c-1.8,0.4-4.3,0.8-7.3,0.8c-2.4,0-3.3,0.6-3.3,1.6c0,1.4,1.4,2,4.3,2c8,0,20.8-0.6,25.5-0.6c5.7,0,18.6,0.6,31.8,0.6
				c2.4,0,4.1-0.6,4.1-2c0-1-1-1.6-3.3-1.6c-3.1,0-7.5-0.4-10.4-0.8c-6.1-0.8-7.3-5.3-8-11c-1-8.8-1-24.9-1-43.6v-35.9
				c0-31,0-36.7,0.4-43.2c0.4-7.1,2-10.6,7.5-11.6c2.4-0.4,4.3-0.6,5.9-0.6c2.4,0,3.7-0.4,3.7-1.8c0-1.4-1.4-1.8-4.3-1.8
				c-8,0-20.8,0.6-25.7,0.6c-5.5,0-18.4-0.6-29.4-0.6c-2.9,0-4.3,0.4-4.3,1.8c0,1.4,1.2,1.8,3.5,1.8c2.9,0,6.3,0.2,8,0.6
				c6.7,1.4,8.4,4.7,8.8,11.6c0.4,6.5,0.4,12.2,0.4,43.2v4.3c0,1-0.6,1.4-1.2,1.4H2266L2266,722.6z M2491.1,758.7h-45.5
				c-1,0-1.4,0.4-1.8,1.6l-11,29.2c-2,5.1-3.1,10-3.1,12.4c0,3.7,1.8,6.3,8.2,6.3h3.1c2.4,0,3.1,0.4,3.1,1.6c0,1.6-1.2,2-3.5,2
				c-6.5,0-15.3-0.6-21.6-0.6c-2.2,0-13.5,0.6-24.1,0.6c-2.7,0-3.9-0.4-3.9-2c0-1.2,0.8-1.6,2.4-1.6c1.8,0,4.7-0.2,6.3-0.4
				c9.4-1.2,13.3-8.2,17.3-18.4l51.2-128.1c2.4-5.9,3.7-8.2,5.7-8.2c1.8,0,3.1,1.8,5.1,6.5c4.9,11.2,37.5,94.4,50.6,125.3
				c7.7,18.3,13.7,21.1,17.9,22.3c3.1,0.6,6.1,0.8,8.6,0.8c1.6,0,2.7,0.2,2.7,1.6c0,1.6-1.8,2-9.4,2c-7.3,0-22.2,0-38.5-0.4
				c-3.7-0.2-6.1-0.2-6.1-1.6c0-1.2,0.8-1.6,2.9-1.8c1.4-0.4,2.9-2.2,1.8-4.7l-16.3-43.2C2492.7,759.1,2492.1,758.7,2491.1,758.7
				L2491.1,758.7z M2449.7,748.5h37.5c1,0,1.2-0.6,1-1.2l-18.4-50.4c-0.2-0.8-0.4-1.8-1-1.8c-0.6,0-1,1-1.2,1.8l-18.8,50.2
				C2448.7,747.9,2448.9,748.5,2449.7,748.5z"/>
		</g>
		<g>
			<circle class="st1" cx="1898.6" cy="156.1" r="62.5"/>
			<path class="st1" d="M1479.5,494.3c1.1,43,8.3,57.3,19.3,61.1c9.4,3.3,19.8,3.9,28.6,3.9c6.1,0,9.4,1.1,9.4,4.4
				c0,4.4-5,5.5-12.7,5.5c-35.8,0-57.8-1.7-68.3-1.7c-5,0-30.8,1.7-59.5,1.7c-7.2,0-12.1-0.6-12.1-5.5c0-3.3,3.3-4.4,8.8-4.4
				c7.2,0,17.1-0.6,24.8-2.8c14.3-4.4,16.5-20.4,17.1-68.3l5-326c0-11,1.7-18.7,7.2-18.7c6.1,0,11,7.2,20.4,17.1
				c6.6,7.2,90.3,96.9,170.7,176.8c37.4,37.4,111.8,116.8,121.2,125.6h2.8l-5.5-247.3c-0.6-33.6-5.5-44.1-18.7-49.6
				c-8.3-3.3-21.5-3.3-29.2-3.3c-6.6,0-8.8-1.7-8.8-5c0-4.4,6.1-5,14.3-5c28.6,0,55.1,1.7,66.6,1.7c6.1,0,27-1.7,54-1.7
				c7.2,0,12.7,0.6,12.7,5c0,3.3-3.3,5-9.9,5c-5.5,0-9.9,0-16.5,1.7c-15.4,4.4-19.8,16-20.4,46.8l-6.1,347.5
				c0,12.1-2.2,17.1-7.2,17.1c-6.1,0-12.7-6.1-18.7-12.1c-34.7-33-105.2-105.2-162.5-161.9c-60-59.5-121.2-128.3-131.1-138.8h-1.7
				L1479.5,494.3z"/>
			<path class="st1" d="M1865.6,364.4c0-66.8,0-79.1-1.1-93.2c-1.1-14.9-6.6-22.4-18.7-24.6c-6.1-1.3-13.2-1.8-19.8-1.8
				c-5.5,0-8.8-0.9-8.8-4.4c0-2.6,4.4-3.5,13.2-3.5c20.9,0,55.6,1.3,71.6,1.3c13.8,0,46.3-1.3,67.2-1.3c7.2,0,11.6,0.9,11.6,3.5
				c0,3.5-3.3,4.4-8.8,4.4c-5.5,0-9.9,0.4-16.5,1.3c-14.9,2.2-19.3,9.7-20.4,25.1c-1.1,14.1-1.1,26.4-1.1,93.2v77.3
				c0,42.6,0,77.4,2.2,96.2c1.7,11.9,5.5,19.8,22,21.5c7.7,0.9,19.8,1.8,28.1,1.8c6.1,0,8.8,1.3,8.8,3.5c0,3.1-4.4,4.4-10.5,4.4
				c-36.3,0-71-1.3-85.9-1.3c-12.7,0-47.4,1.3-69.4,1.3c-7.2,0-11-1.3-11-4.4c0-2.2,2.2-3.5,8.8-3.5c8.3,0,14.9-0.9,19.8-1.8
				c11-1.8,14.3-9.2,16-22c2.8-18.5,2.8-53.2,2.8-95.8V364.4z"/>
			<path class="st1" d="M2078.7,409.5c0,70.5,0,108.5,11.6,118.4c9.4,8.3,23.7,12.1,66.6,12.1c29.2,0,50.7-0.6,64.4-15.4
				c6.6-7.2,13.2-22.6,14.3-33c0.6-5,1.7-8.3,6.1-8.3c3.9,0,4.4,2.8,4.4,9.4c0,6.1-3.9,47.4-8.3,63.3c-3.3,12.1-6.1,14.9-34.7,14.9
				c-39.7,0-68.3-1.1-93.1-1.7c-24.8-1.1-44.6-1.7-67.2-1.7c-6.1,0-18.2,0-31.4,0.6c-12.7,0-27,1.1-38,1.1c-7.2,0-11-1.7-11-5.5
				c0-2.8,2.2-4.4,8.8-4.4c8.3,0,14.9-1.1,19.8-2.2c11-2.2,13.8-14.3,16-30.3c2.8-23.1,2.8-66.6,2.8-117.3v-96.9
				c0-83.7,0-99.1-1.1-116.8c-1.1-18.7-5.5-27.5-23.7-31.4c-4.4-1.1-11-1.7-18.2-1.7c-6.1,0-9.4-1.1-9.4-5c0-3.9,3.9-5,12.1-5
				c25.9,0,60.6,1.7,75.4,1.7c13.2,0,53.4-1.7,74.9-1.7c7.7,0,11.6,1.1,11.6,5c0,3.9-3.3,5-9.9,5c-6.1,0-14.9,0.6-21.5,1.7
				c-14.9,2.8-19.3,12.1-20.4,31.4c-1.1,17.6-1.1,33-1.1,116.8V409.5z"/>
			<path class="st1" d="M2175.6,361c0-94.2,62.2-215.9,227.5-215.9c137.1,0,222.5,79.9,222.5,206s-88.1,225.8-228,225.8
				C2239.5,576.9,2175.6,458.5,2175.6,361z M2548.5,371.5c0-123.4-71-199.9-161.4-199.9c-63.3,0-135.5,35.2-135.5,172.4
				c0,114.6,63.3,205.4,169.1,205.4C2459.3,549.4,2548.5,530.6,2548.5,371.5z"/>
		</g>
	</g>
</g>
</svg>
